HIERARCHY
ROOT Hips
{
 OFFSET 0.000000 0.000000 0.000000
 CHANNELS 6 Xposition Yposition Zposition Yrotation Xrotation Zrotation
 JOINT Chest
 {
  OFFSET 0.000000 10.383400 0.001500
  CHANNELS 3 Yrotation Xrotation Zrotation
  JOINT Chest2
  {
   OFFSET 0.000000 10.418200 -0.003100
   CHANNELS 3 Yrotation Xrotation Zrotation
   JOINT Chest3
   {
    OFFSET 0.000000 10.375100 0.000000
    CHANNELS 3 Yrotation Xrotation Zrotation
    JOINT Chest4
    {
     OFFSET 0.000000 10.364600 0.000000
     CHANNELS 3 Yrotation Xrotation Zrotation
     JOINT Neck
     {
      OFFSET 0.000000 15.642200 0.000000
      CHANNELS 3 Yrotation Xrotation Zrotation
      JOINT Head
      {
       OFFSET 0.000000 9.697300 -0.006500
       CHANNELS 3 Yrotation Xrotation Zrotation
       End Site
       {
        OFFSET 0.000000 18.492200 -0.003400
       }
      }
     }
     JOINT RightCollar
     {
      OFFSET -3.166800 10.349300 0.000000
      CHANNELS 3 Yrotation Xrotation Zrotation
      JOINT RightShoulder
      {
       OFFSET -14.729700 0.000000 0.000000
       CHANNELS 3 Yrotation Xrotation Zrotation
       JOINT RightElbow
       {
        OFFSET 0.000000 -32.224300 0.000000
        CHANNELS 3 Yrotation Xrotation Zrotation
        JOINT RightWrist
        {
         OFFSET 0.000000 -26.084100 0.000000
         CHANNELS 3 Yrotation Xrotation Zrotation
         End Site
         {
          OFFSET 0.000000 -19.319400 0.000000
         }
        }
       }
      }
     }
     JOINT LeftCollar
     {
      OFFSET 3.166800 10.349300 0.000000
      CHANNELS 3 Yrotation Xrotation Zrotation
      JOINT LeftShoulder
      {
       OFFSET 14.729700 0.000000 0.000000
       CHANNELS 3 Yrotation Xrotation Zrotation
       JOINT LeftElbow
       {
        OFFSET 0.000000 -32.224300 0.000000
        CHANNELS 3 Yrotation Xrotation Zrotation
        JOINT LeftWrist
        {
         OFFSET 0.000000 -26.084100 0.000000
         CHANNELS 3 Yrotation Xrotation Zrotation
         End Site
         {
          OFFSET 0.000000 -19.319400 0.000000
         }
        }
       }
      }
     }
    }
   }
  }
 }
 JOINT RightHip
 {
  OFFSET -8.428900 -0.007500 -0.000800
  CHANNELS 3 Yrotation Xrotation Zrotation
  JOINT RightKnee
  {
   OFFSET 0.000000 -43.834600 0.000700
   CHANNELS 3 Yrotation Xrotation Zrotation
   JOINT RightAnkle
   {
    OFFSET 0.000000 -42.757000 0.001200
    CHANNELS 3 Yrotation Xrotation Zrotation
    JOINT RightToe
    {
     OFFSET 0.000000 -6.946900 15.649300
     CHANNELS 3 Yrotation Xrotation Zrotation
     End Site
     {
      OFFSET 0.000000 -1.580800 6.825800
     }
    }
   }
  }
 }
 JOINT LeftHip
 {
  OFFSET 8.428900 -0.007500 -0.000800
  CHANNELS 3 Yrotation Xrotation Zrotation
  JOINT LeftKnee
  {
   OFFSET 0.000000 -43.834600 0.000700
   CHANNELS 3 Yrotation Xrotation Zrotation
   JOINT LeftAnkle
   {
    OFFSET 0.000000 -42.757000 0.001200
    CHANNELS 3 Yrotation Xrotation Zrotation
    JOINT LeftToe
    {
     OFFSET 0.000000 -6.946900 15.649300
     CHANNELS 3 Yrotation Xrotation Zrotation
     End Site
     {
      OFFSET 0.000000 -1.580800 6.825800
     }
    }
   }
  }
 }
}
MOTION
Frames: 15
Frame Time: 0.008333
24.389670 126.877888 -52.377822 -16.321409 -27.017828 -1.632041 -1.173358 20.669614 2.206671 -0.190109 2.677491 0.302881 -0.313882 4.364419 0.497156 -1.044075 17.688310 1.901240 3.470194 10.898399 -2.318802 7.696184 -15.296807 -5.985180 0.199941 -12.685392 -10.606636 3.468208 -15.748742 0.578337 -2.585889 -57.898001 -10.988168 -1.158690 -11.401665 -11.233363 -4.984743 -12.250643 0.636596 4.647217 -23.267839 6.207204 -2.318961 -53.646063 14.629813 -15.150943 -13.804579 9.329879 -2.263521 -43.140129 1.683404 -13.152417 71.574455 -13.636955 2.771937 2.114814 5.359094 0.002486 -0.007601 0.001103 -2.818127 -35.916105 -9.262815 3.794420 63.751654 5.088979 -12.178018 0.721327 -4.820115 0.001102 0.000851 0.000489
24.389268 126.878118 -52.378964 -16.340487 -27.025006 -1.618593 -1.159542 20.674611 2.201760 -0.194104 2.672196 0.304996 -0.310066 4.369374 0.494473 -1.045133 17.685729 1.900328 3.453245 10.963340 -2.315487 7.649042 -15.184716 -5.968078 0.200203 -12.685924 -10.613578 3.572530 -15.803822 0.598339 -2.624998 -58.189545 -10.996174 -1.128873 -11.303083 -11.196060 -4.967486 -12.242610 0.644360 4.528709 -23.253157 6.174740 -2.188805 -53.882692 14.473473 -15.117587 -13.754616 9.355435 -2.260051 -43.130724 1.686411 -13.129882 71.568156 -13.618499 2.772561 2.111654 5.353111 0.002626 -0.007223 0.001165 -2.816459 -35.911088 -9.270988 3.814608 63.749951 5.113212 -12.171347 0.724487 -4.827003 0.001895 0.000004 0.000841
24.388566 126.877550 -52.382189 -16.344702 -27.024260 -1.616284 -1.159468 20.673273 2.202696 -0.193489 2.672317 0.304954 -0.309238 4.369937 0.494233 -1.041305 17.686806 1.899935 3.434042 11.029019 -2.305589 7.594748 -15.064923 -5.942023 0.206538 -12.704650 -10.639830 3.673005 -15.848556 0.646147 -2.664278 -58.501034 -11.020342 -1.077726 -11.136410 -11.153346 -4.942670 -12.240159 0.662171 4.423391 -23.232279 6.112335 -2.013496 -54.139694 14.254586 -15.091056 -13.685476 9.375147 -2.259538 -43.131085 1.687924 -13.128913 71.561208 -13.612405 2.773012 2.114571 5.349102 0.002036 -0.007495 0.000904 -2.833975 -35.914078 -9.276214 3.825863 63.739654 5.140400 -12.161413 0.731413 -4.853444 0.006338 -0.000906 0.002813
24.387677 126.877231 -52.385284 -16.352362 -27.028337 -1.612903 -1.158481 20.674418 2.204834 -0.189552 2.669639 0.315210 -0.311359 4.374956 0.484984 -1.033955 17.689280 1.902799 3.418979 11.061244 -2.304365 7.520513 -14.910357 -5.886681 0.247611 -12.753805 -10.672964 3.729949 -15.848057 0.692081 -2.676743 -58.835322 -11.053420 -1.009217 -10.932579 -11.119233 -4.897598 -12.238378 0.693419 4.324681 -23.209450 6.011929 -1.838596 -54.411210 14.018420 -15.074159 -13.622629 9.416743 -2.255052 -43.127128 1.689776 -13.130118 71.553263 -13.610258 2.776377 2.120081 5.346358 0.000523 -0.006679 0.000232 -2.849715 -35.913076 -9.273289 3.857229 63.734123 5.166050 -12.156030 0.737970 -4.857270 0.006843 -0.000033 0.003037
24.388261 126.877959 -52.386025 -16.362239 -27.046801 -1.596879 -1.153770 20.689278 2.201866 -0.183235 2.666942 0.314008 -0.310877 4.376298 0.492252 -1.018424 17.691590 1.912024 3.381913 11.096800 -2.310445 7.432244 -14.760370 -5.819133 0.263159 -12.785527 -10.706657 3.800993 -15.864630 0.727118 -2.667459 -59.170343 -11.108322 -0.934308 -10.740831 -11.102732 -4.883218 -12.238379 0.698246 4.269387 -23.196871 5.953729 -1.676353 -54.676405 13.745600 -15.063758 -13.607154 9.509771 -2.239484 -43.111278 1.677177 -13.133566 71.547112 -13.615405 2.781233 2.127049 5.345686 -0.000110 -0.006757 -0.000049 -2.849796 -35.897450 -9.284780 3.883370 63.727961 5.186050 -12.176035 0.747723 -4.854350 0.003708 -0.000918 0.001646
24.388382 126.878377 -52.387979 -16.366906 -27.061419 -1.587504 -1.135850 20.686908 2.213880 -0.190187 2.676439 0.306136 -0.316247 4.380783 0.490993 -1.002470 17.693412 1.914929 3.343343 11.162830 -2.288036 7.342199 -14.648036 -5.761823 0.263861 -12.804098 -10.717521 3.899466 -15.906238 0.749016 -2.645227 -59.486106 -11.180532 -0.867104 -10.616420 -11.106160 -4.887481 -12.240230 0.704410 4.230781 -23.185909 5.915214 -1.558997 -54.945201 13.514222 -15.061830 -13.647173 9.661805 -2.229419 -43.100802 1.672028 -13.148475 71.543875 -13.631103 2.778010 2.129652 5.343687 -0.000840 -0.008315 -0.000373 -2.850724 -35.883506 -9.299705 3.913803 63.719779 5.214612 -12.166452 0.754405 -4.853295 0.002119 -0.001549 0.000940
24.388502 126.878826 -52.390314 -16.373443 -27.076129 -1.577945 -1.125631 20.695688 2.212900 -0.186291 2.677672 0.307122 -0.304555 4.379497 0.495363 -1.014512 17.698706 1.910285 3.296588 11.276386 -2.252083 7.255791 -14.584666 -5.717051 0.272191 -12.823194 -10.728111 4.007900 -15.959411 0.762383 -2.621051 -59.773479 -11.256606 -0.818344 -10.586491 -11.127845 -4.884365 -12.241540 0.712665 4.123651 -23.165385 5.835471 -1.508856 -55.241814 13.435016 -15.070354 -13.708605 9.847317 -2.216249 -43.088284 1.664862 -13.156668 71.537591 -13.638740 2.780510 2.132938 5.343740 -0.001128 -0.007154 -0.000501 -2.845768 -35.867358 -9.311564 3.928846 63.705502 5.232088 -12.175009 0.766059 -4.855621 0.000469 -0.001426 0.000208
24.388560 126.879032 -52.393628 -16.379297 -27.087139 -1.570669 -1.119661 20.704784 2.209858 -0.183179 2.678202 0.308064 -0.296230 4.381698 0.497582 -1.015230 17.698648 1.909992 3.249109 11.361919 -2.223699 7.147799 -14.494923 -5.648037 0.314679 -12.906545 -10.789232 4.081556 -15.957524 0.818824 -2.626412 -60.042526 -11.298590 -0.792940 -10.637635 -11.159996 -4.828569 -12.242580 0.738644 3.961118 -23.151825 5.757931 -1.436475 -55.569155 13.340118 -15.082624 -13.757156 10.030184 -2.204278 -43.079854 1.661238 -13.154446 71.529246 -13.637439 2.777441 2.141115 5.345463 -0.002202 -0.006179 -0.000977 -2.842755 -35.854641 -9.320213 3.939880 63.690798 5.245931 -12.179681 0.776403 -4.862917 -0.001987 -0.000733 -0.000882
24.388603 126.878887 -52.398095 -16.381399 -27.092893 -1.566991 -1.109323 20.707987 2.213548 -0.186914 2.680569 0.306429 -0.298245 4.382545 0.496893 -0.992791 17.709604 1.913189 3.184966 11.420948 -2.194998 7.023474 -14.390281 -5.560840 0.326917 -12.977487 -10.844632 4.159550 -15.991071 0.876058 -2.698803 -60.308696 -11.264080 -0.784584 -10.733417 -11.193891 -4.828368 -12.253221 0.751444 3.814397 -23.146054 5.718457 -1.356167 -55.930292 13.259713 -15.090163 -13.774074 10.179460 -2.200379 -43.078628 1.665316 -13.156464 71.523483 -13.644239 2.771744 2.150073 5.347510 -0.002190 -0.005672 -0.000972 -2.841695 -35.842934 -9.321411 3.943289 63.670077 5.248536 -12.180546 0.786158 -4.868430 -0.001360 0.003156 -0.000604
24.387860 126.879633 -52.401242 -16.376488 -27.108828 -1.568334 -1.104324 20.718411 2.213677 -0.185944 2.683692 0.306670 -0.296899 4.387387 0.497266 -0.978072 17.726110 1.909856 3.113002 11.469447 -2.153704 6.889838 -14.286283 -5.462576 0.332502 -13.043228 -10.882911 4.233124 -16.044051 0.932905 -2.861424 -60.587340 -11.131322 -0.780269 -10.834886 -11.228715 -4.809760 -12.272932 0.775832 3.633699 -23.138383 5.665541 -1.254646 -56.328840 13.186794 -15.090110 -13.745761 10.280999 -2.202013 -43.065466 1.669117 -13.183855 71.516061 -13.672383 2.779433 2.157821 5.348914 -0.000706 -0.005172 -0.000313 -2.847178 -35.822991 -9.319377 3.943856 63.647625 5.248694 -12.180281 0.802637 -4.876659 0.001174 0.003151 0.000521
24.387507 126.881820 -52.401457 -16.373668 -27.141805 -1.561578 -1.100783 20.732783 2.208306 -0.188224 2.695683 0.307187 -0.292911 4.388456 0.493341 -0.983279 17.735755 1.904854 3.049909 11.527903 -2.112717 6.746828 -14.186156 -5.352300 0.363192 -13.091277 -10.925299 4.302484 -16.097911 0.996349 -3.110170 -60.890340 -10.915867 -0.774754 -10.917205 -11.266063 -4.778371 -12.283263 0.788689 3.459811 -23.120856 5.605261 -1.126625 -56.764595 13.095712 -15.080865 -13.680480 10.337350 -2.195686 -43.033604 1.665849 -13.198761 71.508492 -13.695238 2.777096 2.164348 5.354431 -0.001427 -0.004941 -0.000633 -2.847269 -35.786946 -9.322442 3.939943 63.631994 5.242100 -12.192551 0.814578 -4.883712 0.001743 0.001859 0.000774
24.387048 126.882360 -52.405044 -16.375584 -27.154421 -1.557754 -1.097305 20.733581 2.205151 -0.185820 2.689543 0.303877 -0.296585 4.400792 0.493495 -0.982734 17.742688 1.903621 2.978507 11.583218 -2.074183 6.593487 -14.093123 -5.231576 0.380882 -13.113420 -10.945360 4.398352 -16.170330 1.039269 -3.407666 -61.215056 -10.663099 -0.769700 -10.972267 -11.307304 -4.753978 -12.292522 0.790661 3.367640 -23.105734 5.574419 -0.936514 -57.224054 12.867838 -15.057179 -13.610233 10.358561 -2.191032 -43.024989 1.670086 -13.197757 71.501839 -13.703428 2.775245 2.173769 5.354533 -0.003876 -0.005445 -0.001721 -2.851884 -35.774522 -9.310957 3.927567 63.623491 5.221699 -12.206696 0.820062 -4.888698 -0.000029 0.002113 -0.000013
24.387810 126.884583 -52.404499 -16.373136 -27.187507 -1.542410 -1.104662 20.763315 2.187057 -0.184414 2.683515 0.300311 -0.296926 4.403550 0.490803 -0.983269 17.750353 1.904504 2.899290 11.632464 -2.038443 6.425781 -14.008115 -5.103436 0.400684 -13.133232 -10.965237 4.500020 -16.240498 1.080495 -3.711838 -61.547079 -10.410955 -0.767114 -11.004635 -11.352208 -4.725031 -12.298804 0.782776 3.276756 -23.091875 5.548067 -0.695751 -57.700921 12.588623 -15.016861 -13.552552 10.361835 -2.173465 -42.995543 1.653286 -13.177079 71.499796 -13.692507 2.763130 2.181774 5.358221 -0.003726 -0.006006 -0.001654 -2.846780 -35.738724 -9.322896 3.927225 63.610216 5.216272 -12.214957 0.827403 -4.900771 -0.000885 -0.001223 -0.000393
24.388496 126.885642 -52.406043 -16.372690 -27.205816 -1.529551 -1.109651 20.770452 2.170272 -0.181630 2.688031 0.299112 -0.298422 4.406705 0.490655 -0.990627 17.751842 1.888980 2.821046 11.679976 -1.995866 6.237490 -13.931519 -4.972254 0.448327 -13.162782 -10.997969 4.566461 -16.293264 1.138236 -3.991294 -61.868078 -10.170694 -0.766506 -11.032793 -11.397313 -4.670838 -12.300599 0.779212 3.125620 -23.034197 5.410114 -0.561676 -58.234073 12.487634 -14.966434 -13.506642 10.369256 -2.154315 -42.980835 1.641061 -13.151996 71.495597 -13.678074 2.749803 2.191706 5.364786 -0.004550 -0.005666 -0.002020 -2.844524 -35.719113 -9.328541 3.930119 63.598685 5.211109 -12.218538 0.835703 -4.905479 -0.001317 -0.003096 -0.000584
24.388508 126.885879 -52.409133 -16.371666 -27.213103 -1.523187 -1.099410 20.761292 2.158824 -0.192979 2.701811 0.306602 -0.296663 4.405578 0.487706 -0.978173 17.754793 1.848687 2.771565 11.699863 -1.934575 5.974367 -13.843595 -4.820708 0.459027 -13.191691 -10.996442 4.610775 -16.352976 1.191560 -4.220535 -62.158609 -9.941082 -0.765700 -11.087672 -11.442392 -4.665098 -12.296967 0.822347 3.058315 -22.981587 5.301871 -0.333914 -58.790756 12.206651 -14.915433 -13.470683 10.408418 -2.140861 -42.978293 1.635971 -13.155991 71.493824 -13.688210 2.745639 2.198135 5.369866 -0.005310 -0.005239 -0.002357 -2.857724 -35.708643 -9.316700 3.958918 63.582136 5.220895 -12.232830 0.841415 -4.911704 0.001138 -0.001796 0.000505
